<?xml version="1.0" encoding="UTF-8"?>
<svg width="720px" height="1080px" viewBox="0 0 720 1080" version="1.1" xmlns="http://www.w3.org/2000/svg" xmlns:xlink="http://www.w3.org/1999/xlink">
    <title>Group</title>
    <g id="Page-1" stroke="none" stroke-width="1" fill="none" fill-rule="evenodd">
        <g id="Group">
            <polygon id="Fill-1" fill="#FFFFFF" points="0 1080 720 1080 720 0 0 0"></polygon>
            <polygon id="Fill-2" fill="#FFFFFF" points="90 945 648 945 648 129.6 90 129.6"></polygon>
            <line x1="144.673468" y1="945" x2="144.673468" y2="129.6" id="Stroke-3" stroke="#D6D6D6" stroke-linecap="round" stroke-linejoin="round"></line>
            <text id="0.016" font-family="LucidaGrande, Lucida Grande" font-size="23" font-weight="normal" fill="#333333">
                <tspan x="111.735968" y="966.880859">0.016</tspan>
            </text>
            <line x1="235.718121" y1="945" x2="235.718121" y2="129.6" id="Stroke-5" stroke="#D6D6D6" stroke-linecap="round" stroke-linejoin="round"></line>
            <text id="0.062" font-family="LucidaGrande, Lucida Grande" font-size="23" font-weight="normal" fill="#333333">
                <tspan x="202.780621" y="966.880859">0.062</tspan>
            </text>
            <line x1="326.762773" y1="945" x2="326.762773" y2="129.6" id="Stroke-7" stroke="#D6D6D6" stroke-linecap="round" stroke-linejoin="round"></line>
            <text id="0.250" font-family="LucidaGrande, Lucida Grande" font-size="23" font-weight="normal" fill="#333333">
                <tspan x="293.825273" y="966.880859">0.250</tspan>
            </text>
            <line x1="417.807426" y1="945" x2="417.807426" y2="129.6" id="Stroke-9" stroke="#D6D6D6" stroke-linecap="round" stroke-linejoin="round"></line>
            <text id="1.000" font-family="LucidaGrande, Lucida Grande" font-size="23" font-weight="normal" fill="#333333">
                <tspan x="384.869926" y="966.880859">1.000</tspan>
            </text>
            <line x1="508.852079" y1="945" x2="508.852079" y2="129.6" id="Stroke-11" stroke="#D6D6D6" stroke-linecap="round" stroke-linejoin="round"></line>
            <text id="4.000" font-family="LucidaGrande, Lucida Grande" font-size="23" font-weight="normal" fill="#333333">
                <tspan x="475.914579" y="966.880859">4.000</tspan>
            </text>
            <line x1="599.896731" y1="945" x2="599.896731" y2="129.6" id="Stroke-13" stroke="#D6D6D6" stroke-linecap="round" stroke-linejoin="round"></line>
            <g id="Group-15" transform="translate(158.585938, 944.880859)" fill="#333333" font-family="LucidaGrande, Lucida Grande" font-size="23" font-weight="normal">
                <text id="16.000">
                    <tspan x="401.052981" y="22">16.000</tspan>
                </text>
                <text id="False-Positive-Count-(lower-is-better)">
                    <tspan x="0" y="48.25">False Positive Count (lower is better)</tspan>
                </text>
            </g>
            <line x1="90" y1="929.738503" x2="648" y2="929.738503" id="Stroke-16" stroke="#D6D6D6" stroke-linecap="round" stroke-linejoin="round"></line>
            <text id="0.0" font-family="LucidaGrande, Lucida Grande" font-size="23" font-weight="normal" fill="#333333">
                <tspan x="43.90625" y="933.384987">0.0</tspan>
            </text>
            <line x1="90" y1="820.727807" x2="648" y2="820.727807" id="Stroke-18" stroke="#D6D6D6" stroke-linecap="round" stroke-linejoin="round"></line>
            <text id="0.1" font-family="LucidaGrande, Lucida Grande" font-size="23" font-weight="normal" fill="#333333">
                <tspan x="43.90625" y="824.374292">0.1</tspan>
            </text>
            <line x1="90" y1="711.717112" x2="648" y2="711.717112" id="Stroke-20" stroke="#D6D6D6" stroke-linecap="round" stroke-linejoin="round"></line>
            <text id="0.2" font-family="LucidaGrande, Lucida Grande" font-size="23" font-weight="normal" fill="#333333">
                <tspan x="43.90625" y="715.363597">0.2</tspan>
            </text>
            <line x1="90" y1="602.706417" x2="648" y2="602.706417" id="Stroke-22" stroke="#D6D6D6" stroke-linecap="round" stroke-linejoin="round"></line>
            <text id="0.3" font-family="LucidaGrande, Lucida Grande" font-size="23" font-weight="normal" fill="#333333">
                <tspan x="43.90625" y="606.352901">0.3</tspan>
            </text>
            <line x1="90" y1="493.695722" x2="648" y2="493.695722" id="Stroke-24" stroke="#D6D6D6" stroke-linecap="round" stroke-linejoin="round"></line>
            <text id="0.4" font-family="LucidaGrande, Lucida Grande" font-size="23" font-weight="normal" fill="#333333">
                <tspan x="43.90625" y="497.342206">0.4</tspan>
            </text>
            <line x1="90" y1="384.685027" x2="648" y2="384.685027" id="Stroke-26" stroke="#D6D6D6" stroke-linecap="round" stroke-linejoin="round"></line>
            <text id="0.5" font-family="LucidaGrande, Lucida Grande" font-size="23" font-weight="normal" fill="#333333">
                <tspan x="43.90625" y="388.331511">0.5</tspan>
            </text>
            <line x1="90" y1="275.674332" x2="648" y2="275.674332" id="Stroke-28" stroke="#D6D6D6" stroke-linecap="round" stroke-linejoin="round"></line>
            <text id="0.6" font-family="LucidaGrande, Lucida Grande" font-size="23" font-weight="normal" fill="#333333">
                <tspan x="43.90625" y="279.320816">0.6</tspan>
            </text>
            <line x1="90" y1="166.663636" x2="648" y2="166.663636" id="Stroke-30" stroke="#D6D6D6" stroke-linecap="round" stroke-linejoin="round"></line>
            <g id="Group-32" transform="translate(7.625000, 148.310121)" fill="#333333" font-family="LucidaGrande, Lucida Grande" font-size="23" font-weight="normal">
                <text id="0.7">
                    <tspan x="36.28125" y="22">0.7</tspan>
                </text>
                <text id="Sensitivity-(higher-is-better)" transform="translate(13.500000, 397.464488) rotate(-90.000000) translate(-13.500000, -397.464488) ">
                    <tspan x="-139.5" y="405.964488">Sensitivity (higher is better)</tspan>
                </text>
            </g>
            <g id="Group-93" transform="translate(108.292568, 159.592568)">
                <g id="Group-36" transform="translate(242.266548, 21.802139)">
                    <path d="M7.071068,14.142136 C8.946337,14.142136 10.745053,13.397084 12.071068,12.071068 C13.397084,10.745053 14.142136,8.946337 14.142136,7.071068 C14.142136,5.195799 13.397084,3.397083 12.071068,2.071068 C10.745053,0.745052 8.946337,0 7.071068,0 C5.195799,0 3.397083,0.745052 2.071068,2.071068 C0.745052,3.397083 0,5.195799 0,7.071068 C0,8.946337 0.745052,10.745053 2.071068,12.071068 C3.397083,13.397084 5.195799,14.142136 7.071068,14.142136 Z" id="Fill-33" fill="#4C72B0"></path>
                    <path d="M7.071068,14.142136 C8.946337,14.142136 10.745053,13.397084 12.071068,12.071068 C13.397084,10.745053 14.142136,8.946337 14.142136,7.071068 C14.142136,5.195799 13.397084,3.397083 12.071068,2.071068 C10.745053,0.745052 8.946337,0 7.071068,0 C5.195799,0 3.397083,0.745052 2.071068,2.071068 C0.745052,3.397083 0,5.195799 0,7.071068 C0,8.946337 0.745052,10.745053 2.071068,12.071068 C3.397083,13.397084 5.195799,14.142136 7.071068,14.142136 Z" id="Stroke-35" stroke="#4C72B0" stroke-linejoin="round"></path>
                </g>
                <g id="Group-40" transform="translate(168.452624, 32.703209)">
                    <path d="M7.071068,14.142136 C8.946337,14.142136 10.745053,13.397084 12.071068,12.071068 C13.397084,10.745053 14.142136,8.946337 14.142136,7.071068 C14.142136,5.195799 13.397084,3.397083 12.071068,2.071068 C10.745053,0.745052 8.946337,0 7.071068,0 C5.195799,0 3.397083,0.745052 2.071068,2.071068 C0.745052,3.397083 0,5.195799 0,7.071068 C0,8.946337 0.745052,10.745053 2.071068,12.071068 C3.397083,13.397084 5.195799,14.142136 7.071068,14.142136 Z" id="Fill-37" fill="#4C72B0"></path>
                    <path d="M7.071068,14.142136 C8.946337,14.142136 10.745053,13.397084 12.071068,12.071068 C13.397084,10.745053 14.142136,8.946337 14.142136,7.071068 C14.142136,5.195799 13.397084,3.397083 12.071068,2.071068 C10.745053,0.745052 8.946337,0 7.071068,0 C5.195799,0 3.397083,0.745052 2.071068,2.071068 C0.745052,3.397083 0,5.195799 0,7.071068 C0,8.946337 0.745052,10.745053 2.071068,12.071068 C3.397083,13.397084 5.195799,14.142136 7.071068,14.142136 Z" id="Stroke-39" stroke="#4C72B0" stroke-linejoin="round"></path>
                </g>
                <g id="Group-44" transform="translate(182.089305, 76.307487)">
                    <path d="M7.071068,14.142136 C8.946337,14.142136 10.745053,13.397084 12.071068,12.071068 C13.397084,10.745053 14.142136,8.946337 14.142136,7.071068 C14.142136,5.195799 13.397084,3.397083 12.071068,2.071068 C10.745053,0.745052 8.946337,0 7.071068,0 C5.195799,0 3.397083,0.745052 2.071068,2.071068 C0.745052,3.397083 0,5.195799 0,7.071068 C0,8.946337 0.745052,10.745053 2.071068,12.071068 C3.397083,13.397084 5.195799,14.142136 7.071068,14.142136 Z" id="Fill-41" fill="#4C72B0"></path>
                    <path d="M7.071068,14.142136 C8.946337,14.142136 10.745053,13.397084 12.071068,12.071068 C13.397084,10.745053 14.142136,8.946337 14.142136,7.071068 C14.142136,5.195799 13.397084,3.397083 12.071068,2.071068 C10.745053,0.745052 8.946337,0 7.071068,0 C5.195799,0 3.397083,0.745052 2.071068,2.071068 C0.745052,3.397083 0,5.195799 0,7.071068 C0,8.946337 0.745052,10.745053 2.071068,12.071068 C3.397083,13.397084 5.195799,14.142136 7.071068,14.142136 Z" id="Stroke-43" stroke="#4C72B0" stroke-linejoin="round"></path>
                </g>
                <g id="Group-48" transform="translate(189.824687, 98.109626)">
                    <path d="M7.071068,14.142136 C8.946337,14.142136 10.745053,13.397084 12.071068,12.071068 C13.397084,10.745053 14.142136,8.946337 14.142136,7.071068 C14.142136,5.195799 13.397084,3.397083 12.071068,2.071068 C10.745053,0.745052 8.946337,0 7.071068,0 C5.195799,0 3.397083,0.745052 2.071068,2.071068 C0.745052,3.397083 0,5.195799 0,7.071068 C0,8.946337 0.745052,10.745053 2.071068,12.071068 C3.397083,13.397084 5.195799,14.142136 7.071068,14.142136 Z" id="Fill-45" fill="#4C72B0"></path>
                    <path d="M7.071068,14.142136 C8.946337,14.142136 10.745053,13.397084 12.071068,12.071068 C13.397084,10.745053 14.142136,8.946337 14.142136,7.071068 C14.142136,5.195799 13.397084,3.397083 12.071068,2.071068 C10.745053,0.745052 8.946337,0 7.071068,0 C5.195799,0 3.397083,0.745052 2.071068,2.071068 C0.745052,3.397083 0,5.195799 0,7.071068 C0,8.946337 0.745052,10.745053 2.071068,12.071068 C3.397083,13.397084 5.195799,14.142136 7.071068,14.142136 Z" id="Stroke-47" stroke="#4C72B0" stroke-linejoin="round"></path>
                </g>
                <g id="Group-52" transform="translate(235.347013, 109.010695)">
                    <path d="M7.071068,14.142136 C8.946337,14.142136 10.745053,13.397084 12.071068,12.071068 C13.397084,10.745053 14.142136,8.946337 14.142136,7.071068 C14.142136,5.195799 13.397084,3.397083 12.071068,2.071068 C10.745053,0.745052 8.946337,0 7.071068,0 C5.195799,0 3.397083,0.745052 2.071068,2.071068 C0.745052,3.397083 0,5.195799 0,7.071068 C0,8.946337 0.745052,10.745053 2.071068,12.071068 C3.397083,13.397084 5.195799,14.142136 7.071068,14.142136 Z" id="Fill-49" fill="#4C72B0"></path>
                    <path d="M7.071068,14.142136 C8.946337,14.142136 10.745053,13.397084 12.071068,12.071068 C13.397084,10.745053 14.142136,8.946337 14.142136,7.071068 C14.142136,5.195799 13.397084,3.397083 12.071068,2.071068 C10.745053,0.745052 8.946337,0 7.071068,0 C5.195799,0 3.397083,0.745052 2.071068,2.071068 C0.745052,3.397083 0,5.195799 0,7.071068 C0,8.946337 0.745052,10.745053 2.071068,12.071068 C3.397083,13.397084 5.195799,14.142136 7.071068,14.142136 Z" id="Stroke-51" stroke="#4C72B0" stroke-linejoin="round"></path>
                </g>
                <g id="Group-56" transform="translate(393.979166, -0.000000)">
                    <path d="M7.071068,14.142136 C8.946337,14.142136 10.745053,13.397084 12.071068,12.071068 C13.397084,10.745053 14.142136,8.946337 14.142136,7.071068 C14.142136,5.195799 13.397084,3.397083 12.071068,2.071068 C10.745053,0.745052 8.946337,0 7.071068,0 C5.195799,0 3.397083,0.745052 2.071068,2.071068 C0.745052,3.397083 -5.68434189e-14,5.195799 -5.68434189e-14,7.071068 C-5.68434189e-14,8.946337 0.745052,10.745053 2.071068,12.071068 C3.397083,13.397084 5.195799,14.142136 7.071068,14.142136 Z" id="Fill-53" fill="#4C72B0"></path>
                    <path d="M7.071068,14.142136 C8.946337,14.142136 10.745053,13.397084 12.071068,12.071068 C13.397084,10.745053 14.142136,8.946337 14.142136,7.071068 C14.142136,5.195799 13.397084,3.397083 12.071068,2.071068 C10.745053,0.745052 8.946337,0 7.071068,0 C5.195799,0 3.397083,0.745052 2.071068,2.071068 C0.745052,3.397083 -5.68434189e-14,5.195799 -5.68434189e-14,7.071068 C-5.68434189e-14,8.946337 0.745052,10.745053 2.071068,12.071068 C3.397083,13.397084 5.195799,14.142136 7.071068,14.142136 Z" id="Stroke-55" stroke="#4C72B0" stroke-linejoin="round"></path>
                </g>
                <g id="Group-60" transform="translate(313.313923, 119.911765)">
                    <path d="M7.071068,14.142136 C8.946337,14.142136 10.745053,13.397084 12.071068,12.071068 C13.397084,10.745053 14.142136,8.946337 14.142136,7.071068 C14.142136,5.195799 13.397084,3.397083 12.071068,2.071068 C10.745053,0.745052 8.946337,0 7.071068,0 C5.195799,0 3.397083,0.745052 2.071068,2.071068 C0.745052,3.397083 0,5.195799 0,7.071068 C0,8.946337 0.745052,10.745053 2.071068,12.071068 C3.397083,13.397084 5.195799,14.142136 7.071068,14.142136 Z" id="Fill-57" fill="#4C72B0"></path>
                    <path d="M7.071068,14.142136 C8.946337,14.142136 10.745053,13.397084 12.071068,12.071068 C13.397084,10.745053 14.142136,8.946337 14.142136,7.071068 C14.142136,5.195799 13.397084,3.397083 12.071068,2.071068 C10.745053,0.745052 8.946337,0 7.071068,0 C5.195799,0 3.397083,0.745052 2.071068,2.071068 C0.745052,3.397083 0,5.195799 0,7.071068 C0,8.946337 0.745052,10.745053 2.071068,12.071068 C3.397083,13.397084 5.195799,14.142136 7.071068,14.142136 Z" id="Stroke-59" stroke="#4C72B0" stroke-linejoin="round"></path>
                </g>
                <g id="Group-64" transform="translate(294.048354, 228.922460)">
                    <path d="M7.071068,14.142136 C8.946337,14.142136 10.745053,13.397084 12.071068,12.071068 C13.397084,10.745053 14.142136,8.946337 14.142136,7.071068 C14.142136,5.195799 13.397084,3.397083 12.071068,2.071068 C10.745053,0.745052 8.946337,0 7.071068,0 C5.195799,0 3.397083,0.745052 2.071068,2.071068 C0.745052,3.397083 0,5.195799 0,7.071068 C0,8.946337 0.745052,10.745053 2.071068,12.071068 C3.397083,13.397084 5.195799,14.142136 7.071068,14.142136 Z" id="Fill-61" fill="#4C72B0"></path>
                    <path d="M7.071068,14.142136 C8.946337,14.142136 10.745053,13.397084 12.071068,12.071068 C13.397084,10.745053 14.142136,8.946337 14.142136,7.071068 C14.142136,5.195799 13.397084,3.397083 12.071068,2.071068 C10.745053,0.745052 8.946337,0 7.071068,0 C5.195799,0 3.397083,0.745052 2.071068,2.071068 C0.745052,3.397083 0,5.195799 0,7.071068 C0,8.946337 0.745052,10.745053 2.071068,12.071068 C3.397083,13.397084 5.195799,14.142136 7.071068,14.142136 Z" id="Stroke-63" stroke="#4C72B0" stroke-linejoin="round"></path>
                </g>
                <g id="Group-68" transform="translate(449.392092, 76.307487)">
                    <path d="M7.071068,14.142136 C8.946337,14.142136 10.745053,13.397084 12.071068,12.071068 C13.397084,10.745053 14.142136,8.946337 14.142136,7.071068 C14.142136,5.195799 13.397084,3.397083 12.071068,2.071068 C10.745053,0.745052 8.946337,0 7.071068,0 C5.195799,0 3.397083,0.745052 2.071068,2.071068 C0.745052,3.397083 0,5.195799 0,7.071068 C0,8.946337 0.745052,10.745053 2.071068,12.071068 C3.397083,13.397084 5.195799,14.142136 7.071068,14.142136 Z" id="Fill-65" fill="#4C72B0"></path>
                    <path d="M7.071068,14.142136 C8.946337,14.142136 10.745053,13.397084 12.071068,12.071068 C13.397084,10.745053 14.142136,8.946337 14.142136,7.071068 C14.142136,5.195799 13.397084,3.397083 12.071068,2.071068 C10.745053,0.745052 8.946337,0 7.071068,0 C5.195799,0 3.397083,0.745052 2.071068,2.071068 C0.745052,3.397083 0,5.195799 0,7.071068 C0,8.946337 0.745052,10.745053 2.071068,12.071068 C3.397083,13.397084 5.195799,14.142136 7.071068,14.142136 Z" id="Stroke-67" stroke="#4C72B0" stroke-linejoin="round"></path>
                </g>
                <g id="Group-72" transform="translate(105.699568, 534.152406)">
                    <path d="M7.071068,14.142136 C8.946337,14.142136 10.745053,13.397084 12.071068,12.071068 C13.397084,10.745053 14.142136,8.946337 14.142136,7.071068 C14.142136,5.195799 13.397084,3.397083 12.071068,2.071068 C10.745053,0.745052 8.946337,-5.68434189e-14 7.071068,-5.68434189e-14 C5.195799,-5.68434189e-14 3.397083,0.745052 2.071068,2.071068 C0.745052,3.397083 0,5.195799 0,7.071068 C0,8.946337 0.745052,10.745053 2.071068,12.071068 C3.397083,13.397084 5.195799,14.142136 7.071068,14.142136 Z" id="Fill-69" fill="#4C72B0"></path>
                    <path d="M7.071068,14.142136 C8.946337,14.142136 10.745053,13.397084 12.071068,12.071068 C13.397084,10.745053 14.142136,8.946337 14.142136,7.071068 C14.142136,5.195799 13.397084,3.397083 12.071068,2.071068 C10.745053,0.745052 8.946337,-5.68434189e-14 7.071068,-5.68434189e-14 C5.195799,-5.68434189e-14 3.397083,0.745052 2.071068,2.071068 C0.745052,3.397083 0,5.195799 0,7.071068 C0,8.946337 0.745052,10.745053 2.071068,12.071068 C3.397083,13.397084 5.195799,14.142136 7.071068,14.142136 Z" id="Stroke-71" stroke="#4C72B0" stroke-linejoin="round"></path>
                </g>
                <g id="Group-76" transform="translate(250.001929, 545.053476)">
                    <path d="M7.071068,14.142136 C8.946337,14.142136 10.745053,13.397084 12.071068,12.071068 C13.397084,10.745053 14.142136,8.946337 14.142136,7.071068 C14.142136,5.195799 13.397084,3.397083 12.071068,2.071068 C10.745053,0.745052 8.946337,5.68434189e-14 7.071068,5.68434189e-14 C5.195799,5.68434189e-14 3.397083,0.745052 2.071068,2.071068 C0.745052,3.397083 0,5.195799 0,7.071068 C0,8.946337 0.745052,10.745053 2.071068,12.071068 C3.397083,13.397084 5.195799,14.142136 7.071068,14.142136 Z" id="Fill-73" fill="#4C72B0"></path>
                    <path d="M7.071068,14.142136 C8.946337,14.142136 10.745053,13.397084 12.071068,12.071068 C13.397084,10.745053 14.142136,8.946337 14.142136,7.071068 C14.142136,5.195799 13.397084,3.397083 12.071068,2.071068 C10.745053,0.745052 8.946337,5.68434189e-14 7.071068,5.68434189e-14 C5.195799,5.68434189e-14 3.397083,0.745052 2.071068,2.071068 C0.745052,3.397083 0,5.195799 0,7.071068 C0,8.946337 0.745052,10.745053 2.071068,12.071068 C3.397083,13.397084 5.195799,14.142136 7.071068,14.142136 Z" id="Stroke-75" stroke="#4C72B0" stroke-linejoin="round"></path>
                </g>
                <g id="Group-80" transform="translate(326.846165, 545.053476)">
                    <path d="M7.071068,14.142136 C8.946337,14.142136 10.745053,13.397084 12.071068,12.071068 C13.397084,10.745053 14.142136,8.946337 14.142136,7.071068 C14.142136,5.195799 13.397084,3.397083 12.071068,2.071068 C10.745053,0.745052 8.946337,5.68434189e-14 7.071068,5.68434189e-14 C5.195799,5.68434189e-14 3.397083,0.745052 2.071068,2.071068 C0.745052,3.397083 0,5.195799 0,7.071068 C0,8.946337 0.745052,10.745053 2.071068,12.071068 C3.397083,13.397084 5.195799,14.142136 7.071068,14.142136 Z" id="Fill-77" fill="#4C72B0"></path>
                    <path d="M7.071068,14.142136 C8.946337,14.142136 10.745053,13.397084 12.071068,12.071068 C13.397084,10.745053 14.142136,8.946337 14.142136,7.071068 C14.142136,5.195799 13.397084,3.397083 12.071068,2.071068 C10.745053,0.745052 8.946337,5.68434189e-14 7.071068,5.68434189e-14 C5.195799,5.68434189e-14 3.397083,0.745052 2.071068,2.071068 C0.745052,3.397083 0,5.195799 0,7.071068 C0,8.946337 0.745052,10.745053 2.071068,12.071068 C3.397083,13.397084 5.195799,14.142136 7.071068,14.142136 Z" id="Stroke-79" stroke="#4C72B0" stroke-linejoin="round"></path>
                </g>
                <g id="Group-84" transform="translate(303.744324, 599.558824)">
                    <path d="M7.071068,14.142136 C8.946337,14.142136 10.745053,13.397084 12.071068,12.071068 C13.397084,10.745053 14.142136,8.946337 14.142136,7.071068 C14.142136,5.195799 13.397084,3.397083 12.071068,2.071068 C10.745053,0.745052 8.946337,-5.68434189e-14 7.071068,-5.68434189e-14 C5.195799,-5.68434189e-14 3.397083,0.745052 2.071068,2.071068 C0.745052,3.397083 0,5.195799 0,7.071068 C0,8.946337 0.745052,10.745053 2.071068,12.071068 C3.397083,13.397084 5.195799,14.142136 7.071068,14.142136 Z" id="Fill-81" fill="#4C72B0"></path>
                    <path d="M7.071068,14.142136 C8.946337,14.142136 10.745053,13.397084 12.071068,12.071068 C13.397084,10.745053 14.142136,8.946337 14.142136,7.071068 C14.142136,5.195799 13.397084,3.397083 12.071068,2.071068 C10.745053,0.745052 8.946337,-5.68434189e-14 7.071068,-5.68434189e-14 C5.195799,-5.68434189e-14 3.397083,0.745052 2.071068,2.071068 C0.745052,3.397083 0,5.195799 0,7.071068 C0,8.946337 0.745052,10.745053 2.071068,12.071068 C3.397083,13.397084 5.195799,14.142136 7.071068,14.142136 Z" id="Stroke-83" stroke="#4C72B0" stroke-linejoin="round"></path>
                </g>
                <g id="Group-88" transform="translate(0.000000, 741.272727)">
                    <path d="M7.071068,14.142136 C8.946337,14.142136 10.745053,13.397084 12.071068,12.071068 C13.397084,10.745053 14.142136,8.946337 14.142136,7.071068 C14.142136,5.195799 13.397084,3.397083 12.071068,2.071068 C10.745053,0.745052 8.946337,0 7.071068,0 C5.195799,0 3.397083,0.745052 2.071068,2.071068 C0.745052,3.397083 0,5.195799 0,7.071068 C0,8.946337 0.745052,10.745053 2.071068,12.071068 C3.397083,13.397084 5.195799,14.142136 7.071068,14.142136 Z" id="Fill-85" fill="#4C72B0"></path>
                    <path d="M7.071068,14.142136 C8.946337,14.142136 10.745053,13.397084 12.071068,12.071068 C13.397084,10.745053 14.142136,8.946337 14.142136,7.071068 C14.142136,5.195799 13.397084,3.397083 12.071068,2.071068 C10.745053,0.745052 8.946337,0 7.071068,0 C5.195799,0 3.397083,0.745052 2.071068,2.071068 C0.745052,3.397083 0,5.195799 0,7.071068 C0,8.946337 0.745052,10.745053 2.071068,12.071068 C3.397083,13.397084 5.195799,14.142136 7.071068,14.142136 Z" id="Stroke-87" stroke="#4C72B0" stroke-linejoin="round"></path>
                </g>
                <g id="Group-92" transform="translate(507.272727, 294.328877)">
                    <path d="M7.071068,14.142136 C8.946337,14.142136 10.745053,13.397084 12.071068,12.071068 C13.397084,10.745053 14.142136,8.946337 14.142136,7.071068 C14.142136,5.195799 13.397084,3.397083 12.071068,2.071068 C10.745053,0.745052 8.946337,0 7.071068,0 C5.195799,0 3.397083,0.745052 2.071068,2.071068 C0.745052,3.397083 0,5.195799 0,7.071068 C0,8.946337 0.745052,10.745053 2.071068,12.071068 C3.397083,13.397084 5.195799,14.142136 7.071068,14.142136 Z" id="Fill-89" fill="#4C72B0"></path>
                    <path d="M7.071068,14.142136 C8.946337,14.142136 10.745053,13.397084 12.071068,12.071068 C13.397084,10.745053 14.142136,8.946337 14.142136,7.071068 C14.142136,5.195799 13.397084,3.397083 12.071068,2.071068 C10.745053,0.745052 8.946337,0 7.071068,0 C5.195799,0 3.397083,0.745052 2.071068,2.071068 C0.745052,3.397083 0,5.195799 0,7.071068 C0,8.946337 0.745052,10.745053 2.071068,12.071068 C3.397083,13.397084 5.195799,14.142136 7.071068,14.142136 Z" id="Stroke-91" stroke="#4C72B0" stroke-linejoin="round"></path>
                </g>
            </g>
            <g id="Group-97" transform="translate(331.665644, 224.998986)">
                <path d="M7.071067,14.142135 C8.946337,14.142135 10.745052,13.397083 12.071067,12.071067 C13.397083,10.745052 14.142135,8.946337 14.142135,7.071067 C14.142135,5.195798 13.397083,3.397083 12.071067,2.071067 C10.745052,0.745052 8.946337,0 7.071067,0 C5.195798,0 3.397083,0.745052 2.071067,2.071067 C0.745052,3.397083 5.68434189e-14,5.195798 5.68434189e-14,7.071067 C5.68434189e-14,8.946337 0.745052,10.745052 2.071067,12.071067 C3.397083,13.397083 5.195798,14.142135 7.071067,14.142135 Z" id="Fill-94" fill="#C44E52"></path>
                <path d="M7.071067,14.142135 C8.946337,14.142135 10.745052,13.397083 12.071067,12.071067 C13.397083,10.745052 14.142135,8.946337 14.142135,7.071067 C14.142135,5.195798 13.397083,3.397083 12.071067,2.071067 C10.745052,0.745052 8.946337,0 7.071067,0 C5.195798,0 3.397083,0.745052 2.071067,2.071067 C0.745052,3.397083 5.68434189e-14,5.195798 5.68434189e-14,7.071067 C5.68434189e-14,8.946337 0.745052,10.745052 2.071067,12.071067 C3.397083,13.397083 5.195798,14.142135 7.071067,14.142135 Z" id="Stroke-96" stroke="#C44E52" stroke-linejoin="round"></path>
            </g>
            <g id="Group-108" transform="translate(89.500000, 129.100000)">
                <line x1="0.5" y1="815.9" x2="0.5" y2="0.5" id="Stroke-98" stroke="#D6D6D6" stroke-width="1.25" stroke-linecap="square"></line>
                <line x1="558.5" y1="815.9" x2="558.5" y2="0.5" id="Stroke-99" stroke="#D6D6D6" stroke-width="1.25" stroke-linecap="square"></line>
                <line x1="0.5" y1="815.9" x2="558.5" y2="815.9" id="Stroke-100" stroke="#D6D6D6" stroke-width="1.25" stroke-linecap="square"></line>
                <line x1="0.5" y1="0.5" x2="558.5" y2="0.5" id="Stroke-101" stroke="#D6D6D6" stroke-width="1.25" stroke-linecap="square"></line>
                <path d="M252.55,804.4 L542.4,804.4 C545.466667,804.4 547,802.866667 547,799.8 L547,734.6 C547,731.533333 545.466667,730 542.4,730 L252.55,730 C249.483333,730 247.95,731.533333 247.95,734.6 L247.95,799.8 C247.95,802.866667 249.483333,804.4 252.55,804.4 Z" id="Fill-102" fill-opacity="0.8" fill="#FFFFFF"></path>
                <path d="M252.55,804.4 L542.4,804.4 C545.466667,804.4 547,802.866667 547,799.8 L547,734.6 C547,731.533333 545.466667,730 542.4,730 L252.55,730 C249.483333,730 247.95,731.533333 247.95,734.6 L247.95,799.8 C247.95,802.866667 249.483333,804.4 252.55,804.4 Z" id="Stroke-103" stroke-opacity="0.8" stroke="#D6D6D6"></path>
                <path d="M280.15,757.702318 C282.025269,757.702318 283.823984,756.957266 285.15,755.63125 C286.476015,754.305235 287.221068,752.506519 287.221068,750.63125 C287.221068,748.755981 286.476015,746.957266 285.15,745.63125 C283.823984,744.305235 282.025269,743.560182 280.15,743.560182 C278.274731,743.560182 276.476015,744.305235 275.15,745.63125 C273.823984,746.957266 273.078932,748.755981 273.078932,750.63125 C273.078932,752.506519 273.823984,754.305235 275.15,755.63125 C276.476015,756.957266 278.274731,757.702318 280.15,757.702318 Z" id="Fill-104" fill="#4C72B0"></path>
                <path d="M280.15,757.702318 C282.025269,757.702318 283.823984,756.957266 285.15,755.63125 C286.476015,754.305235 287.221068,752.506519 287.221068,750.63125 C287.221068,748.755981 286.476015,746.957266 285.15,745.63125 C283.823984,744.305235 282.025269,743.560182 280.15,743.560182 C278.274731,743.560182 276.476015,744.305235 275.15,745.63125 C273.823984,746.957266 273.078932,748.755981 273.078932,750.63125 C273.078932,752.506519 273.823984,754.305235 275.15,755.63125 C276.476015,756.957266 278.274731,757.702318 280.15,757.702318 Z" id="Stroke-105" stroke="#4C72B0" stroke-linejoin="round"></path>
                <text id="All-Submissions" font-family="LucidaGrande, Lucida Grande" font-size="23" font-weight="normal" fill="#333333">
                    <tspan x="321.55" y="751.580859">All Submissions</tspan>
                </text>
                <path d="M280.15,791.452318 C282.025269,791.452318 283.823984,790.707266 285.15,789.38125 C286.476015,788.055235 287.221068,786.256519 287.221068,784.38125 C287.221068,782.505981 286.476015,780.707266 285.15,779.38125 C283.823984,778.055235 282.025269,777.310182 280.15,777.310182 C278.274731,777.310182 276.476015,778.055235 275.15,779.38125 C273.823984,780.707266 273.078932,782.505981 273.078932,784.38125 C273.078932,786.256519 273.823984,788.055235 275.15,789.38125 C276.476015,790.707266 278.274731,791.452318 280.15,791.452318 Z" id="Fill-106" fill="#C44E52"></path>
                <path d="M280.15,791.452318 C282.025269,791.452318 283.823984,790.707266 285.15,789.38125 C286.476015,788.055235 287.221068,786.256519 287.221068,784.38125 C287.221068,782.505981 286.476015,780.707266 285.15,779.38125 C283.823984,778.055235 282.025269,777.310182 280.15,777.310182 C278.274731,777.310182 276.476015,778.055235 275.15,779.38125 C273.823984,780.707266 273.078932,782.505981 273.078932,784.38125 C273.078932,786.256519 273.823984,788.055235 275.15,789.38125 C276.476015,790.707266 278.274731,791.452318 280.15,791.452318 Z" id="Stroke-107" stroke="#C44E52" stroke-linejoin="round"></path>
                <text id="nnDetection-(ours)" font-family="LucidaGrande, Lucida Grande" font-size="23" font-weight="normal" fill="#333333">
                    <tspan x="321.55" y="785.330859">nnDetection (ours)</tspan>
                </text>
            </g>
        </g>
    </g>
</svg>